<?xml version="1.0" encoding="UTF-8"?>
<svg id="Camada_1" xmlns="http://www.w3.org/2000/svg" version="1.1" viewBox="0 0 1080 241.3">
  <!-- Generator: Adobe Illustrator 29.6.1, SVG Export Plug-In . SVG Version: 2.1.1 Build 9)  -->
  <defs>
    <style>
      .st0 {
        fill: #cff400;
      }

      .st1, .st2, .st3 {
        fill: #fff;
      }

      .st4 {
        fill: none;
        stroke: #fff;
        stroke-miterlimit: 10;
        stroke-width: 1.5px;
      }

      .st2 {
        font-family: KumbhSans-ExtraBold, 'Kumbh Sans';
        font-size: 158.8px;
        font-weight: 700;
        letter-spacing: 0em;
      }

      .st3 {
        font-family: NoirPro-Regular, 'Noir Pro';
        font-size: 17.1px;
        letter-spacing: 0em;
      }
    </style>
  </defs>
  <text class="st2" transform="translate(47.1 173.2)"><tspan x="0" y="0">LIMO</tspan></text>
  <rect class="st0" x="399.9" y="75.4" width="84.7" height="81.2"/>
  <g>
    <path class="st1" d="M457.4,157.4l14.8-19.9c3.2,2.8,6.2,5,9.2,6.8,3,1.8,5.9,3.1,8.9,3.9,3,.8,6,1.3,9.2,1.3s6.5-.5,9.1-1.4c2.6-.9,4.7-2.2,6.3-3.9,1.6-1.7,2.5-3.7,2.8-6s-.3-5-1.9-7c-1.6-1.9-3.8-3.6-6.6-5.1-2.8-1.5-5.9-2.9-9.2-4.4-3.4-1.5-6.8-3.1-10.3-4.8s-6.6-3.9-9.4-6.4c-2.8-2.5-4.9-5.5-6.4-9.1-1.5-3.6-1.9-7.9-1.3-13,.8-6.7,3.2-12.5,7.2-17.4,4-4.8,9.1-8.6,15.3-11.2,6.2-2.6,13.1-3.9,20.6-3.9s11,.7,16.8,2.2c5.7,1.4,11.4,3.7,17,6.7l-12.7,21.1c-3.3-2.2-6.9-3.9-10.9-5.2-4-1.3-7.8-1.9-11.3-1.9s-5.3.4-7.5,1.2c-2.2.8-4,2-5.3,3.5s-2.1,3.2-2.4,5.2.3,4.7,1.9,6.6c1.6,1.9,3.7,3.5,6.5,5,2.7,1.5,5.7,3,9,4.5,3.4,1.5,6.9,3.3,10.4,5.1,3.5,1.9,6.7,4.1,9.5,6.7,2.8,2.6,5,5.6,6.5,9.2,1.5,3.6,1.9,7.9,1.3,12.9-.8,6.6-3.3,12.4-7.4,17.5-4.2,5-9.6,8.9-16.3,11.7-6.7,2.8-14.3,4.2-22.7,4.2s-15.1-1.3-21.9-3.8c-6.8-2.5-13-6.1-18.5-10.9Z"/>
    <path class="st1" d="M598.5,169.8h-26.1l10.8-88.8h-31.9l2.8-22.8h89.8l-2.8,22.8h-31.9l-10.8,88.8Z"/>
    <path class="st1" d="M747.7,58.1l-7.5,61.3c-1.3,10.9-4.4,20.3-9.3,28.1-4.9,7.8-11.3,13.9-19.1,18.1-7.9,4.2-16.9,6.3-27.2,6.3s-18.7-2.1-25.6-6.3c-6.9-4.2-11.8-10.2-14.8-18.1-3-7.8-3.8-17.2-2.5-28.1l7.5-61.3h26.1l-7,57.9c-.9,7.4-.8,13.6.3,18.5,1.1,4.9,3.2,8.5,6.4,11,3.1,2.4,7.3,3.6,12.4,3.6s9.7-1.2,13.4-3.6c3.7-2.4,6.7-6.1,9-11,2.3-4.9,3.9-11.1,4.8-18.5l7-57.9h26.1Z"/>
    <path class="st1" d="M746.5,169.8l13.6-111.6h37.9c13.4,0,24.8,2.3,34.1,6.9,9.3,4.6,16.2,11.1,20.6,19.4,4.4,8.4,6,18.2,4.6,29.5-1.4,11.3-5.3,21.1-11.8,29.5-6.5,8.4-14.9,14.9-25.3,19.5-10.4,4.6-22.3,6.9-35.7,6.9h-37.9ZM775.5,146.9h12.7c8.2,0,15.3-1.3,21.3-3.8,6-2.6,10.8-6.3,14.4-11.2s5.8-10.9,6.7-17.9c.9-7,0-13-2.3-17.9-2.4-4.9-6.3-8.6-11.7-11.2-5.4-2.6-12.2-3.8-20.4-3.8h-12.7l-8,65.9Z"/>
    <path class="st1" d="M859.5,169.8l13.6-111.6h26.1l-13.6,111.6h-26.1Z"/>
    <path class="st1" d="M953.2,172c-8.5,0-16.2-1.5-23-4.4-6.8-2.9-12.5-7-17.2-12.2-4.7-5.2-8-11.4-10.1-18.4-2.1-7-2.6-14.7-1.6-23.1,1-8.3,3.4-16,7.2-23.1,3.8-7,8.6-13.2,14.5-18.4,5.9-5.2,12.6-9.3,20.2-12.2,7.5-2.9,15.6-4.4,24.1-4.4s16.2,1.5,23,4.4c6.8,2.9,12.5,7,17.1,12.2,4.6,5.2,7.9,11.4,10,18.4,2.1,7,2.6,14.7,1.6,23.1-1,8.3-3.4,16-7.2,23.1-3.8,7-8.6,13.2-14.5,18.4-5.9,5.2-12.6,9.3-20.1,12.2-7.5,2.9-15.5,4.4-24,4.4ZM955.9,149.2c4.6,0,8.9-.9,13-2.7,4.1-1.8,7.8-4.3,11.1-7.5,3.3-3.2,6-6.9,8.1-11.2,2.1-4.3,3.5-8.9,4.1-13.8.6-5,.4-9.6-.7-13.8-1.1-4.3-2.9-8-5.4-11.2-2.5-3.2-5.6-5.7-9.3-7.5-3.7-1.8-7.8-2.6-12.4-2.6s-8.9.9-13.1,2.6c-4.1,1.8-7.9,4.3-11.2,7.5-3.3,3.2-6,7-8.1,11.2-2.1,4.3-3.5,8.9-4.1,13.8-.6,5-.4,9.6.7,13.8,1.1,4.3,2.9,8,5.4,11.2,2.5,3.2,5.6,5.7,9.3,7.5,3.7,1.8,7.9,2.6,12.4,2.6Z"/>
  </g>
  <g>
    <text class="st3" transform="translate(1024.4 63.7) scale(1.1 1)"><tspan x="0" y="0">R</tspan></text>
    <circle class="st4" cx="1030" cy="58.1" r="12.3"/>
  </g>
</svg>