<?xml version="1.0" encoding="UTF-8"?>
<svg id="Camada_1" xmlns="http://www.w3.org/2000/svg" version="1.1" viewBox="0 0 1080 241.3">
  <!-- Generator: Adobe Illustrator 29.6.1, SVG Export Plug-In . SVG Version: 2.1.1 Build 9)  -->
  <defs>
    <style>
      .st0 {
        font-family: KumbhSans-ExtraBold, 'Kumbh Sans';
        font-size: 154.7px;
        font-weight: 700;
        letter-spacing: 0em;
      }

      .st1 {
        fill: #cff400;
      }

      .st2 {
        fill: none;
        stroke: #000;
        stroke-miterlimit: 10;
        stroke-width: 1.7px;
      }

      .st3 {
        font-family: NoirPro-Regular, 'Noir Pro';
        font-size: 16.7px;
        letter-spacing: 0em;
      }
    </style>
  </defs>
  <text class="st0" transform="translate(54.8 179.2)"><tspan x="0" y="0">LIMO</tspan></text>
  <rect class="st1" x="398.5" y="83.9" width="82.5" height="79.1"/>
  <g>
    <path d="M454.5,163.7l14.4-19.4c3.1,2.7,6.1,4.9,9,6.6,2.9,1.7,5.8,3,8.7,3.8,2.9.8,5.9,1.2,9,1.2s6.3-.4,8.9-1.3c2.5-.9,4.6-2.2,6.1-3.8,1.5-1.6,2.4-3.6,2.7-5.9s-.3-4.9-1.9-6.8c-1.6-1.9-3.7-3.5-6.5-4.9-2.7-1.4-5.7-2.8-9-4.2-3.3-1.4-6.6-3-10-4.7-3.4-1.7-6.4-3.8-9.1-6.2-2.7-2.4-4.8-5.4-6.2-8.9-1.4-3.5-1.8-7.7-1.2-12.7.8-6.6,3.1-12.2,7-16.9,3.9-4.7,8.8-8.3,14.9-10.9,6.1-2.5,12.7-3.8,20-3.8s10.7.7,16.3,2.1c5.6,1.4,11.1,3.6,16.6,6.5l-12.4,20.5c-3.2-2.1-6.8-3.8-10.6-5-3.9-1.2-7.5-1.8-11-1.8s-5.2.4-7.3,1.2c-2.1.8-3.9,1.9-5.2,3.4-1.3,1.4-2.1,3.1-2.3,5.1-.3,2.5.3,4.6,1.9,6.4,1.5,1.8,3.6,3.4,6.3,4.9,2.7,1.4,5.6,2.9,8.7,4.4,3.3,1.5,6.7,3.2,10.1,5,3.4,1.8,6.5,4,9.3,6.5,2.8,2.5,4.9,5.5,6.3,9,1.4,3.5,1.9,7.7,1.3,12.5-.8,6.4-3.2,12.1-7.2,17-4,4.9-9.3,8.7-15.9,11.4-6.5,2.7-13.9,4.1-22.1,4.1s-14.7-1.2-21.4-3.7c-6.7-2.4-12.7-6-18.1-10.6Z"/>
    <path d="M592,175.9h-25.5l10.5-86.5h-31l2.7-22.3h87.5l-2.7,22.3h-31l-10.5,86.5Z"/>
    <path d="M737.3,67.1l-7.3,59.7c-1.3,10.6-4.3,19.8-9.1,27.4-4.8,7.6-11,13.5-18.6,17.6-7.7,4.1-16.5,6.2-26.5,6.2s-18.2-2.1-24.9-6.2c-6.7-4.1-11.5-10-14.4-17.6-2.9-7.6-3.7-16.8-2.4-27.4l7.3-59.7h25.5l-6.9,56.4c-.9,7.2-.8,13.3.3,18,1.1,4.8,3.1,8.3,6.2,10.7,3,2.4,7.1,3.6,12.1,3.6s9.4-1.2,13-3.6c3.6-2.4,6.5-5.9,8.8-10.7,2.2-4.8,3.8-10.8,4.7-18l6.9-56.4h25.5Z"/>
    <path d="M736.2,175.9l13.2-108.7h37c13.1,0,24.1,2.2,33.2,6.7,9.1,4.5,15.7,10.8,20,18.9,4.3,8.1,5.8,17.7,4.5,28.7s-5.1,20.5-11.4,28.7c-6.3,8.2-14.5,14.5-24.7,19-10.1,4.5-21.7,6.7-34.8,6.7h-37ZM764.3,153.6h12.4c8,0,14.9-1.2,20.8-3.7,5.8-2.5,10.5-6.1,14-10.9,3.5-4.8,5.7-10.6,6.5-17.5.8-6.9,0-12.7-2.3-17.5-2.3-4.8-6.1-8.4-11.4-10.9-5.2-2.5-11.9-3.7-19.9-3.7h-12.4l-7.8,64.2Z"/>
    <path d="M846.1,175.9l13.2-108.7h25.5l-13.2,108.7h-25.5Z"/>
    <path d="M937.4,178c-8.3,0-15.8-1.4-22.4-4.2-6.6-2.8-12.2-6.8-16.7-11.9-4.5-5.1-7.8-11.1-9.8-17.9-2-6.9-2.5-14.4-1.5-22.5,1-8.1,3.3-15.6,7-22.5,3.7-6.9,8.4-12.8,14.2-17.9,5.8-5.1,12.3-9.1,19.6-11.9,7.3-2.8,15.1-4.2,23.4-4.2s15.8,1.4,22.4,4.2c6.6,2.8,12.2,6.8,16.7,11.9,4.5,5.1,7.7,11.1,9.8,17.9,2,6.9,2.5,14.4,1.5,22.5-1,8.1-3.3,15.6-7,22.5-3.7,6.9-8.4,12.8-14.1,17.9-5.7,5.1-12.3,9.1-19.6,11.9-7.3,2.8-15.1,4.2-23.4,4.2ZM940.1,155.8c4.4,0,8.7-.9,12.6-2.6,4-1.7,7.6-4.2,10.8-7.3,3.2-3.1,5.8-6.8,7.9-10.9,2.1-4.2,3.4-8.6,4-13.5.6-4.8.3-9.3-.7-13.5-1.1-4.2-2.8-7.8-5.2-10.9-2.4-3.1-5.4-5.6-9-7.3-3.6-1.7-7.6-2.6-12.1-2.6s-8.7.9-12.7,2.6c-4,1.7-7.7,4.1-10.9,7.3-3.2,3.1-5.8,6.8-7.9,10.9-2.1,4.2-3.4,8.7-4,13.5-.6,4.8-.4,9.3.7,13.5,1.1,4.2,2.8,7.8,5.3,10.9,2.4,3.1,5.5,5.6,9.1,7.3,3.6,1.7,7.7,2.6,12.1,2.6Z"/>
  </g>
  <g>
    <text class="st3" transform="translate(1006.8 72.5) scale(1.1 1)"><tspan x="0" y="0">R</tspan></text>
    <circle class="st2" cx="1012.3" cy="67.1" r="12"/>
  </g>
</svg>